# xmcd
#
# Track frame offsets:
# 150
# 19060
# 36497
# 62415
# 82725
# 93465
# 115880
# 139057
# 158260
# 174970
# 185917
# 207245
#
# Disc length: 3124 seconds
#
# Revision: 1
# Processed by: cddbd v1.5PL3 Copyright (c) Steve Scherf et al.
# Submitted via: Easy CD Ripper v2.26
#
DISCID=940c320c
DTITLE=Dixie Chicks - Home
DYEAR=2003
DGENRE=Country
TTITLE0=Long Time Gone - Dixie Chicks
TTITLE1=Landslide - Dixie Chicks
TTITLE2=Travelin' Soldier - Dixie Chicks
TTITLE3=Truth No. 2 - Dixie Chicks
TTITLE4=White Trash Wedding - Dixie Chicks
TTITLE5=A Home - Dixie Chicks
TTITLE6=More Love - Dixie Chicks
TTITLE7=I Believe in Love - Dixie Chicks
TTITLE8=Tortured, Tangled Hearts - Dixie Chicks
TTITLE9=Lil' Jack Slade - Dixie Chicks
TTITLE10=Godspeed (Sweet Dreams) - Dixie Chicks
TTITLE11=Top of the World - Dixie Chicks
EXTD=(P)2003 TERASURE ISLAND MUSIC LTD.(C)2003 SONY MUSIC LTD.
EXTT0=
EXTT1=
EXTT2=
EXTT3=
EXTT4=
EXTT5=
EXTT6=
EXTT7=
EXTT8=
EXTT9=
EXTT10=
EXTT11=(P)2003 TERASURE ISLAND MUSIC LTD.(C)2003 SONY MUSIC LTD.
PLAYORDER=
